<?xml version='1.0' encoding='utf-8'?>
<svg xmlns="http://www.w3.org/2000/svg" xmlns:xlink="http://www.w3.org/1999/xlink" version="1.1">
    <path class="st0" d="M322.601,101.922l-0.066,0.829l-0.066,0.262l-0.044,0.052l-0.258,0.212l-0.156,0.071l-0.152,0.04h-0.156
		l-0.417-0.079l-0.225,0.012l-0.296,0.066l-0.549,0.233l-0.236,0.161l-0.154,0.149l-0.099,0.24l-0.04,0.132l-0.39,0.67l-1.125,1.542
		l-0.28,0.525l-0.54,0.786l-0.11,0.199l-0.011,0.136l0.011,0.139l-0.016,0.145l-0.033,0.133l-0.115,0.247l-0.187,0.324l-0.253,0.615
		l-0.11,0.155l-0.172,0.095l-0.492,0.182l-0.159,0.116l-0.117,0.126l-0.187,0.268l-0.066,0.117l-0.049,0.158l-0.033,0.196
		l-0.09,0.305l-0.102,0.123l-0.121,0.033l-0.11-0.054l-0.11-0.066l-0.137-0.043l-0.148,0.008l-0.417,0.2l-0.154,0.039l-0.132-0.01
		l-0.139-0.03l-0.143-0.006l-0.132,0.032l-0.664,0.303l-0.452,0.273l-0.154,0.188L312,112.647l0.148,0.517l0.044,0.281l0.192,0.669
		l0.049,0.113l0.494,0.697l0.104,0.225l0.038,0.136l0.011,0.147l-0.017,0.44l0.027,0.134l0.055,0.113l0.225,0.291l0.115,0.221
		l0.062,0.268l0.026,0.304l0.062,0.281l0.022,0.293l-0.066,0.591l0.099,1.203l0.037,0.125l0.051,0.12l0.313,0.554l0.143,0.354
		l0.121,0.21l0.077,0.093l0.066,0.104l0.187,0.448l0.088,0.294l0.02,0.153l0.007,0.203l-0.077,1.009l0.011,0.144l0.055,0.109
		l0.082,0.096l0.313,0.198l0.093,0.078l0.06,0.098l0.029,0.133l-0.013,0.593l0.038,0.126l0.077,0.091l0.117,0.061l0.554,0.125
		l0.11,0.063l0.088,0.078l0.082,0.094l0.066,0.1l0.088,0.101l0.082,0.076l0.099,0.069l0.181,0.163l0.082,0.097l0.181,0.312
		l0.494,0.566l0.077,0.13l0.055,0.219l-0.033,0.142l-0.077,0.099l-0.11,0.045l-0.28-0.015l-0.159,0.032l-0.055,0.101l0.005,0.115
		l0.033,0.121l0.049,0.123l0.066,0.139l0.132,0.376l-0.022,0.141l-0.088,0.084l-0.126,0.012l-0.291-0.043l-0.412-0.104l-0.291-0.031
		l-0.291,0.034l-0.137,0.032l-0.15,0.058l-0.146,0.082l-0.15,0.155l-0.038,0.144l0.009,0.135l0.399,0.647l0.059,0.137l0.051,0.222
		l-0.055,0.112l-0.106,0.124l-0.132,0.129l-0.296,0.593l-0.077,0.089l-0.088,0.081l-0.22,0.121l-0.132,0.093l-0.132,0.118
		l-0.165,0.23l-0.044,0.23v0.661l-0.055,0.199l-0.088,0.121l-0.181,0.112l-0.121,0.097l-0.188,0.204l-0.066,0.167l-0.015,0.163
		l0.011,0.141l-0.139,1.342l-0.128,0.517l-0.066,0.116l-0.081,0.089l-0.099,0.074l-0.22,0.117l-0.121,0.029l-0.307-0.013
		l-0.285-0.049h-0.296l-1.165-0.925l-0.472-0.224l-0.154-0.01l-0.302,0.01l-0.183-0.01l-0.379-0.071l-0.165-0.01l-0.17,0.017
		l-0.198,0.046l-0.247,0.086l-0.291,0.164l-0.148,0.15l-0.335,0.505L307.626,136l-0.033,0.132l-0.048,0.308l-0.018,0.311
		l0.018,0.453l-0.044,0.138l-0.077,0.117l-0.227,0.214l-0.088,0.106l-0.06,0.113l-0.198,0.835l-0.121,0.226l-0.071,0.094
		l-1.302,1.064l-0.181,0.118l-0.049,0.019l-0.263,0.058l-1.456,0.546l-0.302,0.043l-0.648,0.002l-0.865-0.093l-0.294-0.607v-2.301
		l-0.126-0.589l-0.234-0.55l-0.106-0.573l0.247-0.663l-0.253-0.389l-0.013-0.514l0.205-0.449l0.412-0.192l0.726-0.164l0.296-0.401
		v-0.504l-0.165-0.476l-1.083-1.689l1.445-0.014l0.554,0.171l1.368,0.669l0.768,0.558l0.221,0.089l0.198,0.043l0.143-0.024
		l0.132-0.038l0.113-0.057l0.106-0.075l0.154-0.075l0.203-0.078l0.423-0.072l0.203-0.084l0.126-0.103l0.066-0.106l0.084-0.092
		l0.208-0.131l0.069-0.087l0.044-0.115l0.011-0.628l0.066-0.455l0.068-0.279l0.042-0.127l0.271-1.212v-0.154l-0.027-0.144
		l-0.049-0.109l-0.066-0.112l-0.082-0.088l-0.265-0.252l-0.066-0.108l-0.055-0.113l-0.091-0.236l-0.11-0.562l-0.033-0.133
		l-0.21-0.457l-0.088-0.258l-0.082-0.417l-0.04-0.134l-0.377-0.977l-0.245-1.077l-0.057-0.12l-0.082-0.098l-0.121-0.075l-0.17-0.024
		l-0.199,0.006l-0.455,0.099l-0.126,0.012l-0.139-0.017l-0.113-0.047l-0.093-0.075l-0.066-0.1l-0.093-0.251l-0.157-0.715
		l-0.018-0.045l0.508-2.903l0.013-0.446l-0.038-0.287l-0.038-1.67l-0.027-0.17l-0.082-0.266l-0.06-0.104l-0.082-0.094l-0.263-0.249
		l-0.071-0.198l-0.049-0.305l-0.082-1.555l-0.06-0.427l-0.038-0.132l-0.104-0.231l-0.145-0.201l-0.198-0.147l-2.29-1.329
		l-0.878-0.304l-0.362-0.175l0.104-0.398l0.653-0.796l0.159-0.145l-0.134-0.337l-0.26-0.356l-0.15-0.395l0.181-0.451l0.272-0.4
		l0.155-0.444l-0.027-0.433l-0.28-0.367l0.56-0.307l2.098-0.458l0.671-0.385l1.431-1.175l3.26-1.649l0.203-0.616l0.937-1.407
		l0.267-0.677l0.417-0.212l0.988-2.01l0.165-0.254l0.117-0.064l0.126-0.024l0.126-0.009l0.093,0.01l0.099,0.023l0.11,0.048
		l0.093,0.065l0.088,0.078l0.148,0.159l0.086,0.129l0.062,0.066l0.069,0.029l0.117-0.02l0.143-0.072l0.605-0.601l0.126-0.1
		l0.137-0.059l0.137-0.036l0.143-0.02l0.62-0.006l0.159-0.017l0.165-0.079l0.176-0.138l0.43-0.469l0.137-0.113l0.113-0.056
		l0.265-0.071l0.79-0.025l0.39-0.068l0.121,0.038l0.112,0.058l0.077,0.091l0.044,0.096l-0.017,0.125l-0.071,0.237l0.016,0.121
		l0.049,0.113l0.456,0.549l0.066,0.107l0.077,0.098l0.088,0.085l0.11,0.071l0.236,0.11l0.104,0.062l0.092,0.08l0.069,0.1
		l0.179,0.532l0.029,0.183l0.011,0.27l-0.044,0.155l-0.095,0.118l-0.115,0.091L319.14,98.9l-0.077,0.119l-0.033,0.143l0.006,0.142
		l0.042,0.125l0.073,0.102l0.088,0.079l0.9,0.646l0.573,0.283l0.99,0.888l0.212,0.138l0.485,0.196L322.601,101.922z"/>
	
</g>
</svg>
