<?xml version="1.0" encoding="utf-8"?>
<!-- Generator: Adobe Illustrator 23.0.1, SVG Export Plug-In . SVG Version: 6.00 Build 0)  -->
<svg version="1.1" xmlns="http://www.w3.org/2000/svg" xmlns:xlink="http://www.w3.org/1999/xlink" x="0px" y="0px"
	 width="1200" height="800.016" viewBox="0 0 25000 16667" style="enable-background:new 0 0 800 600;" xml:space="preserve">
<style type="text/css">
	.st0{fill:#808080;stroke:#FFFFFF;stroke-width:0.5;stroke-linecap:round;stroke-linejoin:round;width:}
	.st1{font-family:'Roboto-Regular';}
	.st2{font-size:14px;}
</style>
<g id="Thailand">
	
	
	
	
	
	
	
	<path class="st0" d="M350.373,34.804l-0.071,1.305l0.201,0.741l0.483,0.588l0.638,0.336l0.633-0.002l0.538-0.546l-0.022-1.471
		l0.329-0.302l0.11-0.07l0.787-0.296l0.194-0.031l0.07-0.07l0.408-1.359l0.697-0.9l1.057-0.718l1.284-0.297l1.339,0.367l0.71,0.793
		l2.025,4.483l0.911,1.213l0.17,0.294l0.183,0.522l0.132,0.214l0.274,0.188l0.596,0.262l0.117,0.205l0.263,0.32l0.582,0.361
		l0.582,0.209l0.263-0.141l0.187-0.5l0.161-0.045l0.077,0.373l0.068,1.942l-0.256,1.506l-0.878,2.678v0.003l-0.917,2.402
		l-0.167,1.306l-0.141,0.613l-0.344,0.578l-0.305,0.21l-0.686,0.288l-0.276,0.185l-0.249,0.336l-0.386,1.047l-0.455,0.609
		l-0.855,1.144l-0.154,0.684l0.165,0.514l0.22,0.286l-0.261,0.228l-1.33,1.581l-0.274,0.235l-0.17,0.075l-0.247,0.079l-0.977,0.146
		l-0.187,0.052l-0.188,0.093l-0.263,0.22l-0.11,0.137l-0.066,0.109l-0.038,0.106l-0.06,0.096l-0.121,0.091l-0.176,0.06l-0.346,0.017
		l-0.869-0.066l-0.143,0.019l-0.22,0.084l-0.265,0.137l-0.904,0.622l-0.088,0.086l-0.077,0.091l-0.161,0.29l-0.291,0.761
		l-0.088,0.187l-0.055,0.224v0.136l0.027,0.127l0.07,0.232l0.013,0.12l-0.022,0.114l-0.046,0.107l-0.059,0.083l-0.077,0.075
		l-0.17,0.134l-0.066,0.075l-0.038,0.1l0.004,0.119l0.024,0.121l0.038,0.116l0.011,0.111l-0.027,0.109l-0.049,0.087l-0.269,0.337
		l-0.209,0.224l-0.044,0.074l-0.011,0.041l-0.011,0.032l0.033,0.512l-0.006,0.143l-0.016,0.131l-0.033,0.114l-0.06,0.091
		l-0.161,0.108l-1.421,0.579l-0.093,0.054l-0.082,0.062l-0.06,0.078l-0.028,0.083l0.017,0.236v0.131l-0.027,0.12l-0.044,0.101
		l-0.068,0.09l-0.146,0.038l-0.198-0.006l-0.408-0.132l-0.357-0.168l-0.115-0.035l-0.214,0.004l-0.285,0.037l-0.549,0.127
		l-0.271,0.095l-0.181,0.089l-1.218,1.185l-0.368,0.277l-0.23,0.116l-0.254,0.081l-0.192-0.009l-0.247-0.052l-0.434-0.205
		l-0.198-0.137l-0.121-0.144l-0.06-0.277l-0.005-0.321l0.044-0.301l0.384-1.346v-0.156l-0.011-0.15l-0.038-0.14l-0.049-0.126
		l-0.066-0.104l-0.082-0.093l-0.214-0.133l-5.773,1.008l-0.209,0.084l-0.252,0.146l-0.457,0.359l-0.488,0.303l-0.675,0.084
		l-0.117-0.718l-0.373-0.455l-0.669-0.314l-0.23-0.386l-0.088-0.27l-0.055-0.259l-0.082-0.28l-0.214-0.167l-0.165-0.084
		l-0.161-0.016l-0.135,0.023l-0.128,0.049l-0.102,0.059l-0.084,0.071l-0.121,0.138l-0.527,0.784l-0.203,0.247l-0.066,0.127
		l-0.033,0.144l0.011,0.136l0.033,0.14l0.006,0.139l-0.017,0.141l-0.049,0.128l-0.406,0.612l-0.049,0.137l-0.038,0.131l-0.077,0.609
		l-0.011,0.151l0.037,0.282l0.106,0.237l0.203,0.317l0.055,0.119l0.044,0.122l0.038,0.288l0.022,0.463l-0.066,0.602l-0.018,0.52
		l-0.048,0.266l-0.005,0.193l0.011,0.173l0.022,0.142l-0.005,0.174l-0.055,0.215l-0.721,1.518l-0.121,0.345l-0.044,0.252
		l0.017,0.317l-0.017,0.196l-0.208,0.92l-0.017,0.612l-0.159,0.63l-0.022,0.171l0.037,0.134l0.09,0.063l0.137,0.023l0.137-0.008
		l0.132,0.009l0.104,0.059l0.066,0.095l0.044,0.184l0.011,0.224l-0.037,0.385l-0.073,0.189l-0.121,0.166l-0.148,0.145l-0.236,0.348
		l-0.126,0.33l-0.137,0.564l-0.11,0.232l-0.104,0.152l-0.126,0.043l-0.137,0.029l-0.474,0.003l-0.278,0.03l-0.194,0.048
		l-0.088,0.035l-0.214,0.139l-0.11,0.093l-1.621,1.932l-0.186,0.154l-0.093,0.063l-0.115,0.056l-0.132,0.044l-0.971,0.119
		l-0.369-1.655l-0.187-0.492l-0.302-0.297l-1.623-1.984l-0.141-0.254l-0.538-2.053l-0.044-0.304l0.362-1.551l0.053-0.113
		l0.073-0.103l0.516-0.511l0.066-0.158l0.055-0.224l0.04-0.424l-0.011-0.235l-0.666-2.335l-0.033-0.317l0.044-0.125l0.236-0.377
		l0.082-0.229v-0.169l-0.236-1.048l-0.45-1.086l-0.055-0.243v-0.231l0.104-0.526v-0.203l-0.022-0.183l-0.099-0.36l-0.055-0.143
		l-0.071-0.127l-0.39-0.477l-0.066-0.151l-0.007-0.096l0.018-0.043l0.236-0.308l0.499-0.544l0.088-0.125l0.088-0.155l0.088-0.282
		v-0.174l-0.055-0.14l-0.176-0.178l-0.093-0.073l-0.082-0.09l-0.11-0.168l-0.095-0.25l-0.212-0.793l-0.082-0.197l-0.082-0.09
		l-0.117-0.049l-0.285-0.015l-0.146-0.031l-0.15-0.152l-0.154-0.275l-0.247-0.628l-0.077-0.323l-0.027-0.252l0.027-0.147l0.033-0.13
		l0.053-0.128l0.066-0.118l0.15-0.196l0.362-0.307l0.765-0.444l0.093-0.079l0.077-0.09l0.066-0.114l0.104-0.224l0.066-0.108
		l0.071-0.097l0.086-0.077l0.216-0.145l0.121-0.049l0.135-0.026l0.146,0.009l0.132,0.032l0.121-0.01l0.121-0.076l0.088-0.226
		l0.104-0.128l0.242-0.406l0.269-1.361l0.06-0.203l0.066-0.152l0.247-0.279l0.071-0.124l0.093-0.362l0.055-0.14l0.066-0.099
		l0.088-0.089l0.093-0.079l0.115-0.064l0.128-0.038l0.444-0.069l0.148-0.049l0.126-0.095l0.027-0.119l-0.033-0.166l-0.06-0.195
		l-0.06-0.365l-0.071-0.192l-0.093-0.131l-0.326-0.18l-0.099-0.079l-0.165-0.19l-0.077-0.186l-0.154-0.79v-0.256l0.055-0.179
		l0.161-0.202l0.059-0.099l0.088-0.085l0.099-0.067l0.117-0.056l0.137-0.197l0.143-0.305l0.263-1.124l0.088-0.241l0.086-0.073
		l0.337-0.192l0.263-0.237l0.104-0.07l0.121-0.052l0.122-0.039l0.143-0.015l0.132,0.02l0.527,0.173l0.289,0.019l0.66-0.136
		l0.077,0.009l0.093,0.032l0.187,0.133l0.117,0.065l0.384,0.133l0.104,0.073l0.077,0.09l0.104,0.23l0.055,0.277l0.006,0.145
		l0.022,0.148l0.038,0.126l0.132,0.218l0.077,0.097l0.362,0.34l0.099,0.061l0.143-0.07l0.15-0.191l0.296-0.803l0.091-0.192
		l0.265-0.289l0.263-0.699l0.104-1.235l-0.038-0.249l-0.082-0.09l-0.11-0.061l-0.115-0.047l-0.88-0.128l-0.128-0.044l-0.201-0.133
		l-0.176-0.169l-0.23-0.291l-0.088-0.082l-0.56-0.294l-0.216-0.149l-0.11-0.13l-0.088-0.18l-0.082-0.353l0.013-0.199l0.055-0.146
		l0.088-0.082l0.113-0.058l0.787-0.252l0.115-0.053l0.724-0.52l0.134-0.132l0.157-0.236l0.04-0.172l-0.029-0.134l-0.099-0.066
		l-0.249-0.1l-0.547-0.148l-0.252-0.107l-0.214-0.118l-0.362-0.269l-0.254-0.272l0.057-0.038l0.362-0.647l0.187-0.951l-0.245-0.603
		l-1.156-1.257l-0.399-2.198l-0.304-0.696l-1.302-1.378l-0.318-0.637l0.684-0.25l0.501,0.191l1.727,1.204l2.718,0.905l0.34,0.018
		l0.647-0.09l0.37,0.029l0.318,0.137l0.538,0.375l0.344,0.076l0.684-0.125l1.315-0.562l0.732-0.133l1.434,0.004l0.622-0.214
		l0.596-0.563l0.318-0.615l0.472-1.364l0.402-0.584l0.637-0.424l0.787-0.267l1.932-0.287L344.632,30l0.174,0.037l0.366,0.293
		l0.227,0.332l0.082,0.365l0.128,0.347l0.34,0.295l0.41,0.521l0.382,0.133l0.415-0.003l0.512,0.106l0.468,0.289l0.23,0.315
		l0.176,0.36l0.278,0.417L350.373,34.804z"/>
	<path class="st0" d="M292.972,57.867l0.389-0.04l0.311,0.225l0.267,0.346l0.366,0.306l0.607,0.283l0.139-0.047l0.051-0.256
		l0.366-0.329l0.706-0.276l0.794-0.154l0.271-0.188l0.604-0.778l0.296-0.291l0.622-0.28l3.143-0.465l0.677-0.233l2.074-1.619
		l1.065,0.493l0.494,0.354l0.446,0.407l0.681,1.044l0.552-0.119l1.266-0.935l1.372-0.549l0.49-0.425l0.468-0.815l0.278-0.937
		l-0.04-0.714l-0.176-0.704l-0.117-0.909l0.073-0.382l0.168-0.266l0.168-0.198l0.092-0.179l-0.026-0.349l-0.205-0.686l-0.04-0.373
		l0.388-2.586l0.695-1.287l1.31-0.983l1.559-0.624l1.449-0.217l0.684,0.066l1.46,0.428l0.618,0.291l1.376,1.151l0.721,0.365
		l0.904-0.142l4.255-1.332l1.171-0.998l0.461-0.497l0.417-0.212l0.335-0.223l0.254,0.272l0.362,0.269l0.214,0.118l0.252,0.107
		l0.547,0.148l0.249,0.1l0.099,0.066l0.029,0.134l-0.04,0.172l-0.157,0.236l-0.134,0.132l-0.724,0.52l-0.115,0.053l-0.787,0.252
		l-0.113,0.058l-0.088,0.082l-0.055,0.146l-0.013,0.199l0.082,0.353l0.088,0.18l0.11,0.13l0.216,0.149l0.56,0.294l0.088,0.082
		l0.23,0.291l0.176,0.169l0.201,0.133l0.128,0.044l0.88,0.128l0.115,0.047l0.11,0.061l0.082,0.09l0.038,0.249l-0.104,1.235
		l-0.263,0.699l-0.265,0.289l-0.091,0.192l-0.296,0.803l-0.15,0.191l-0.143,0.07l-0.099-0.061l-0.362-0.34l-0.077-0.097
		l-0.132-0.218l-0.038-0.126l-0.022-0.148l-0.006-0.145l-0.055-0.277l-0.104-0.23l-0.077-0.09l-0.104-0.073l-0.384-0.133
		l-0.117-0.065l-0.187-0.133l-0.093-0.032l-0.077-0.009l-0.66,0.136l-0.289-0.019l-0.527-0.173l-0.132-0.02l-0.143,0.015
		l-0.122,0.039l-0.121,0.052l-0.104,0.07l-0.263,0.237l-0.337,0.192l-0.086,0.073l-0.088,0.241l-0.263,1.124l-0.143,0.305
		l-0.137,0.197l-0.117,0.056l-0.099,0.067l-0.088,0.085l-0.059,0.099l-0.161,0.202l-0.055,0.179v0.256l0.154,0.79l0.077,0.186
		l0.165,0.19l0.099,0.079l0.326,0.18l0.093,0.131l0.071,0.192l0.06,0.365l0.06,0.195l0.033,0.166l-0.027,0.119l-0.126,0.095
		l-0.148,0.049l-0.444,0.069l-0.128,0.038l-0.115,0.064l-0.093,0.079l-0.088,0.089l-0.066,0.099l-0.055,0.14l-0.093,0.362
		l-0.071,0.124l-0.247,0.279l-0.066,0.152l-0.06,0.203l-0.269,1.361l-0.242,0.406l-0.104,0.128l-0.088,0.226l-0.121,0.076
		l-0.121,0.01l-0.132-0.032l-0.146-0.009l-0.135,0.026l-0.121,0.049l-0.216,0.145l-0.086,0.077l-0.071,0.097l-0.066,0.108
		l-0.104,0.224l-0.066,0.114l-0.077,0.09l-0.093,0.079l-0.765,0.444l-0.362,0.307l-0.15,0.196l-0.066,0.118l-0.053,0.128
		l-0.033,0.13l-0.027,0.147l0.027,0.252l0.077,0.323l0.247,0.628l0.154,0.275l0.15,0.152l0.146,0.031l0.285,0.015l0.117,0.049
		l0.082,0.09l0.082,0.197l0.212,0.793l0.095,0.25l0.11,0.168l0.082,0.09l0.093,0.073l0.176,0.178l0.055,0.14v0.174l-0.088,0.282
		l-0.088,0.155l-0.088,0.125l-0.499,0.544l-0.236,0.308l-0.018,0.043l0.007,0.096l0.066,0.151l0.39,0.477l0.071,0.127l0.055,0.143
		l0.099,0.36l0.022,0.183v0.203l-0.104,0.526v0.231l0.055,0.243l0.45,1.086l0.236,1.048v0.169l-0.082,0.229l-0.236,0.377
		l-0.044,0.125l0.033,0.317l0.666,2.335l0.011,0.235l-0.04,0.424l-0.055,0.224l-0.066,0.158l-0.516,0.511l-0.073,0.103l-0.053,0.113
		l-0.362,1.551l0.044,0.304l0.538,2.053l0.141,0.254l1.623,1.984l0.302,0.297l0.187,0.492l0.369,1.655l-0.825,0.535l-0.181,0.328
		l0.022,0.136l0.176,0.506l0.071,0.276v0.273l-0.165,1.146l-0.093,0.344l-0.11,0.24l-0.093,0.07l-0.23,0.128l-0.456,0.175
		l-0.176,0.123l-0.194,0.181l-0.318,0.407l-0.104,0.232l-0.022,0.178l0.06,0.094l0.088,0.072l0.126,0.027l0.134-0.015l0.234-0.096
		l0.099,0.024l0.099,0.124l0.051,0.819l0.08,0.255l0.112,0.558l0.099,0.254l0.115,0.215l0.071,0.099l0.049,0.201l0.038,0.277
		l0.017,0.553l-0.039,0.277l-0.057,0.191l-0.069,0.11l-0.324,0.372l-0.126,0.21l-0.479,1.414l-0.088,0.392l-0.022,0.275l0.26,0.509
		l0.069,0.211l-0.033,0.128l-0.088,0.086l-0.143,0.102l-0.143,0.179l-0.176,0.384l-0.049,0.234l0.022,0.162l0.088,0.079l0.23,0.117
		l0.126,0.043l0.132,0.029l0.161,0.013l0.159,0.053l0.115,0.092l0.077,0.271l-0.038,0.255l-0.11,0.448l-0.093,0.214l-0.106,0.143
		l-0.263,0.121l-0.15,0.086l-0.146,0.232l-0.049,0.254l-0.005,0.427l-0.033,0.224l-0.077,0.175l-0.071,0.072l-0.247,0.203
		l-0.203-0.163l-0.485-0.196l-0.212-0.138l-0.99-0.888l-0.573-0.283l-0.9-0.646l-0.088-0.079l-0.073-0.102l-0.042-0.125
		l-0.006-0.142l0.033-0.143l0.077-0.119l0.159-0.081l0.115-0.091l0.095-0.118l0.044-0.155l-0.011-0.27l-0.029-0.183l-0.179-0.532
		l-0.069-0.1l-0.092-0.08l-0.104-0.062l-0.236-0.11l-0.11-0.071l-0.088-0.085l-0.077-0.098l-0.066-0.107l-0.456-0.549l-0.049-0.113
		l-0.016-0.121l0.071-0.237l0.017-0.125l-0.044-0.096l-0.077-0.091l-0.112-0.058l-0.121-0.038l-0.39,0.068l-0.79,0.025l-0.265,0.071
		l-0.113,0.056l-0.137,0.113l-0.43,0.469l-0.176,0.138l-0.165,0.079l-0.159,0.017l-0.62,0.006l-0.143,0.02l-0.137,0.036
		l-0.137,0.059l-0.126,0.1l-0.605,0.601l-0.143,0.072l-0.117,0.02l-0.069-0.029l-0.062-0.066l-0.086-0.129l-0.148-0.159
		l-0.088-0.078l-0.093-0.065l-0.11-0.048l-0.099-0.023l-0.093-0.01l-0.126,0.009l-0.126,0.024l-0.117,0.064l-0.165,0.254
		l-0.988,2.01l-0.417,0.212l-0.267,0.677l-0.937,1.407l-0.203,0.616l-3.26,1.649l-1.431,1.175l-0.671,0.385l-2.098,0.458
		l-0.56,0.307l0.28,0.367l0.027,0.433l-0.155,0.444l-0.272,0.4l-0.181,0.451l0.15,0.395l0.26,0.356l0.134,0.337l-0.159,0.145
		l-0.653,0.796l-0.104,0.398l0.362,0.175l0.878,0.304l2.29,1.329l0.198,0.147l0.145,0.201l0.104,0.231l0.038,0.132l0.06,0.427
		l0.082,1.555l0.049,0.305l0.071,0.198l0.263,0.249l0.082,0.094l0.06,0.104l0.082,0.266l0.027,0.17l0.038,1.67l0.038,0.287
		l-0.013,0.446l-0.508,2.903l0.018,0.045l0.157,0.715l0.093,0.251l0.066,0.1l0.093,0.075l0.113,0.047l0.139,0.017l0.126-0.012
		l0.455-0.099l0.199-0.006l0.17,0.024l0.121,0.075l0.082,0.098l0.057,0.12l0.245,1.077l0.377,0.977l0.04,0.134l0.082,0.417
		l0.088,0.258l0.21,0.457l0.033,0.133l0.11,0.562l0.091,0.236l0.055,0.113l0.066,0.108l0.265,0.252l0.082,0.088l0.066,0.112
		l0.049,0.109l0.027,0.144v0.154l-0.271,1.212l-0.042,0.127l-0.068,0.279l-0.066,0.455l-0.011,0.628l-0.044,0.115l-0.069,0.087
		l-0.208,0.131l-0.084,0.092l-0.066,0.106l-0.126,0.103l-0.203,0.084l-0.423,0.072l-0.203,0.078l-0.154,0.075l-0.106,0.075
		l-0.113,0.057l-0.132,0.038l-0.143,0.024l-0.198-0.043l-0.221-0.089l-0.768-0.558l-1.368-0.669l-0.554-0.171l-1.445,0.014
		l-0.392,0.24l-0.382,0.181l-0.873,0.292l-0.106,0.064l-0.099,0.068l-0.093,0.085l-0.071,0.101l-0.121,0.229l-0.044,0.123
		l-0.016,0.132l0.016,0.128l0.06,0.257l-0.011,0.138l-0.046,0.121l-0.059,0.097l-0.187,0.161l-0.104,0.064l-0.198,0.15l-0.082,0.088
		l-0.362,0.31l-0.077,0.086l-0.088,0.076l-0.161,0.183l-0.055,0.126l-0.033,0.128l0.007,0.129l0.037,0.117l0.055,0.122l0.044,0.123
		l0.018,0.144l0.004,0.297l0.022,0.137l0.051,0.113l0.225,0.281l0.06,0.111l0.049,0.122l0.049,0.275l-0.011,0.153l-0.027,0.137
		l-0.044,0.121l-0.132,0.215l-0.112,0.228l-0.187,0.326l-0.121,0.083l-0.159,0.066l-0.807,0.107l-0.126,0.034l-0.598,0.245
		l-0.11,0.063l-0.088,0.075l-0.088,0.089l-0.073,0.101l-0.176,0.336l-0.368,0.998l-0.093,0.551l-0.038,0.505l0.038,0.631l0.06,0.278
		l0.049,0.121l0.066,0.099L295.18,142l0.644,0.558l0.135,0.189l0.11,0.236l0.035,0.135l0.033,0.304v0.16l-0.038,0.303l-0.062,0.271
		l-0.179,0.502l-0.26,0.421l-0.047,0.119l-0.029,0.128l0.011,0.126l0.051,0.111l0.088,0.076l0.11,0.063l0.274,0.083l0.11,0.057
		l0.082,0.079l0.044,0.12l0.011,0.127l-0.011,0.137l-0.035,0.138v0.144l0.079,0.414l0.009,0.136l-0.146,0.69l-0.049,0.118
		l-0.071,0.095l-0.095,0.077l-0.267,0.111l-0.485,0.132l-0.368,0.152l-0.911,0.223l-0.443,0.047l-0.657-0.014l-0.143,0.026
		l-0.115,0.036l-1.094,0.609l-0.126,0.046l-0.165,0.046l-0.22,0.022l-0.232-0.025l-0.157-0.047l-0.126-0.065l-0.176-0.162
		l-0.148-0.185l-0.099-0.08l-0.099-0.072l-0.37-0.148l-0.104-0.065l-0.104-0.078l-0.23-0.264l-0.088-0.071l-0.11-0.073l-0.598-0.249
		l-0.192-0.15l-0.088-0.092l-0.073-0.093l-0.055-0.104l-0.033-0.152v-0.186l0.073-0.287l0.077-0.178l0.022-0.269l-0.011-0.323
		l-0.318-1.257l-0.055-0.113l-0.066-0.095l-0.413-0.439l-0.044-0.124v-0.136l0.137-0.216l0.132-0.104l0.335-0.214l0.077-0.097
		l0.055-0.105l0.018-0.156l-0.029-0.157l-0.135-0.18l-0.132-0.089l-0.271-0.107l-0.11-0.065l-0.066-0.152l-0.005-0.211l0.285-1.273
		l0.088-0.85l-0.022-0.289l-0.055-0.297l-0.532-1.557l-0.055-0.127l-0.082-0.084l-0.115-0.059l-0.373-0.135l-0.132-0.025
		l-0.132,0.014l-0.132,0.034l-0.117,0.046l-0.124,0.036l-0.139,0.01l-0.132-0.029l-0.099-0.092l-0.066-0.165l-0.049-0.496
		l-0.017-1.462l0.038-0.291l0.071-0.288l0.104-0.188l0.165-0.21l0.638-0.454l0.296-0.254l0.28-0.652l-2.007-0.829l-0.439-0.391
		l-0.009-0.322l-0.232-0.519l-0.355-0.52l-0.128-0.281l-0.038-0.209l0.049-0.116l0.095-0.078l0.135-0.036l0.11-0.075l0.084-0.121
		l-0.04-0.307l0.011-0.199l0.051-0.149l0.082-0.089l0.28-0.222l0.104-0.061l0.086-0.113l0.062-0.157l-0.017-0.322l-0.093-0.225
		l-0.154-0.258l-0.17-0.215l-0.132-0.133l-0.134-0.082l-0.132-0.045l-0.198-0.132l-0.242-0.216l-0.757-0.984l-0.176-0.176
		l-0.88-1.138l-0.11-0.089l-1.081-0.625l-0.714-0.671l-0.168-0.208l-0.135-0.224l-0.238-0.679l-0.124-0.645l-0.016-0.195
		l0.011-0.173l0.044-0.127l0.119-0.227l0.046-0.122l0.174-0.86l0.051-0.119l0.121-0.216l0.154-0.186l0.088-0.081l0.216-0.137
		l0.351-0.152l0.099-0.081l0.066-0.15l0.022-0.218l-0.022-0.396l-0.055-0.217l-0.104-0.228l-0.444-0.696l-0.121-0.317l-0.04-0.23
		l0.139-0.551l0.022-0.147l0.004-0.839l-0.059-0.499l-0.062-0.251l-0.099-0.194l-0.329-0.328l-0.071-0.173l-0.011-0.156l0.478-1.595
		l0.197-0.473l0.22-0.385l0.073-0.234l-0.016-0.153l-0.066-0.107l-0.269-0.159l-0.176-0.172l-0.077-0.179l-0.057-0.226l-0.022-0.179
		l-0.005-0.168l0.011-0.139l0.044-0.127l0.062-0.108l0.066-0.095l0.081-0.093l1.489-1.255l0.148-0.193l0.232-0.439l0.091-0.251
		l0.088-0.428l0.095-0.265l0.066-0.099l0.08-0.08l0.101-0.048l0.115,0.002l0.22,0.105l0.126,0.04l0.143,0.015l0.143-0.015
		l0.132-0.04l0.121-0.093l0.121-0.13l0.11-0.246v-0.159l-0.049-0.12l-0.198-0.151l-0.208-0.117l-0.401-0.29l-0.11-0.057
		l-0.253-0.093l-0.137-0.029l-0.139-0.043l-0.234-0.118l-0.095-0.076l-0.977-1.228l-0.527-0.811l-0.062-0.207l0.007-0.173
		l0.082-0.258l0.06-0.283l-0.017-1.266l-0.049-0.316l-0.066-0.207l-0.282-0.403l-0.165-0.314l-0.06-0.208l-0.005-0.178l0.051-0.122
		l0.066-0.11l0.157-0.195l0.066-0.104l0.033-0.206l-0.004-0.303l-0.066-0.605v-0.557l0.011-0.152l-0.018-0.465l0.018-0.319
		l0.044-0.303l0.135-0.385l0.062-0.111l0.137-0.33l0.055-0.329l-0.011-0.183l-0.057-0.14l-0.097-0.056l-0.137-0.009l-0.263,0.036
		l-0.128-0.027l-0.088-0.075l-0.115-0.235l-0.362-1.141l-0.06-0.367l-0.005-0.255l1.015-2.266l0.32-1.123l0.088-0.658l-0.005-0.246
		l-0.027-0.189l-0.115-0.405l-0.348-0.905l-0.044-0.259l-0.004-0.186l0.033-0.126l0.022-0.052l0.779-1.489l0.017-0.169l-0.011-0.154
		l-0.477-1.063l-0.005-0.163l0.044-0.133l0.071-0.09l0.192-0.165l0.459-0.316l0.166-0.153l0.104-0.133l0.069-0.129l0.112-0.455
		l0.115-0.759l0.088-0.167l0.121-0.046l0.143-0.017l0.139-0.031l0.104-0.067l0.247-0.258l0.11-0.064l0.121-0.052l0.148-0.023
		l0.472-0.009l0.137,0.026l0.115,0.052l0.093,0.077l0.15,0.192l0.088,0.087l0.102,0.067l0.121,0.049l0.304,0.043l0.121,0.044
		l0.121,0.062l0.187,0.162l0.483,0.523l0.082,0.104l0.346,0.831l0.073,0.103l0.088,0.097l0.091,0.077l0.496,0.345l0.17,0.172
		l0.148,0.198l0.121,0.219l0.406,0.455l0.137,0.208l0.165,0.339l0.073,0.098l0.187,0.172l0.091,0.067l0.232,0.115l0.132,0.039
		l0.291,0.038l1.109-0.062l0.622,0.058l0.571,0.122l0.51,0.17l0.342,0.18l0.373,0.31l0.102,0.064l0.123-0.018l0.143-0.107
		l0.368-0.779l0.077-0.088l0.093-0.075l0.115-0.047l0.132-0.02l0.154,0.003l0.439,0.092l1.039,0.34l0.285,0.047l0.148,0.006
		l0.28-0.052l0.139-0.039l0.121-0.047l0.45-0.247l0.351-0.137l0.135-0.031l0.611-0.035l0.296-0.058l0.117-0.038l0.22-0.11
		l0.505-0.355l0.132-0.163l0.148-0.276l0.236-0.613l0.132-0.665l-0.154-0.864l-0.038-0.125l-0.889-1.504l-0.254-0.277l-0.73-0.635
		l-0.093-0.109l-0.088-0.128l-0.093-0.215l-0.005-0.156l0.033-0.131l0.307-0.768l0.417-1.655l0.04-0.353l-0.033-0.372l0.011-0.694
		l-0.029-0.303l-0.081-0.268l-0.062-0.389l0.007-0.363l-0.018-0.219l-0.044-0.163l-0.066-0.104l-0.088-0.083l-0.093-0.138
		l-0.093-0.191l-0.077-0.381l0.017-0.222l0.075-0.19l0.132-0.2l0.051-0.18l0.016-0.264l-0.033-0.322l0.022-0.7l0.071-0.454
		l0.161-0.583l0.048-0.267v-0.207l-0.037-0.135l-0.112-0.246l-0.121-0.21l-0.254-0.285l-0.19-0.123l-0.241-0.112l-0.088-0.09
		l-0.066-0.116l-0.027-0.142l-0.016-0.756l-0.027-0.137l-0.06-0.102l-0.077-0.089l-0.282-0.253l-0.069-0.093l-0.055-0.107
		l-0.172-0.514l-0.059-0.289l-0.066-0.921l-0.044-0.133l-0.079-0.091l-0.088-0.085l-0.862-0.507l-0.285-0.227l-0.348-0.342
		l-0.08-0.054l-0.051-0.046l-0.307-0.335l-0.285-0.413l-0.115-0.346l-0.112-0.767L292.972,57.867z"/>
		
	<path class="st0" d="M271.425,62.947l0.592-0.087l2.203-1.113l0.285-0.261l0.516-0.622l0.311-0.278l0.388-0.121l0.344,0.01
		l0.289-0.106l0.187-0.475l0.011-0.665l-0.293-1.361l-0.037-0.687l0.472-2.463l0.234-0.511l0.746-0.175l0.53,0.516l0.435,0.625
		l0.461,0.155l0.9-0.15l0.739,0.417l1.409,1.297l1.2,0.379l0.26,0.14l0.165,0.368l-0.044,0.771l0.088,0.394l0.651,0.462l0.893-0.194
		l1.577-0.757l1.427-0.024l1.657,0.161l1.599-0.052l1.237-0.661l0.116-0.012l-0.057,0.448l0.112,0.767l0.115,0.346l0.285,0.413
		l0.307,0.335l0.051,0.046l0.08,0.054l0.348,0.342l0.285,0.227l0.862,0.507l0.088,0.085l0.079,0.091l0.044,0.133l0.066,0.921
		l0.059,0.289l0.172,0.514l0.055,0.107l0.069,0.093l0.282,0.253l0.077,0.089l0.06,0.102l0.027,0.137l0.016,0.756l0.027,0.142
		l0.066,0.116l0.088,0.09l0.241,0.112l0.19,0.123l0.254,0.285l0.121,0.21l0.112,0.246l0.037,0.135v0.207l-0.048,0.267l-0.161,0.583
		l-0.071,0.454l-0.022,0.7l0.033,0.322l-0.016,0.264l-0.051,0.18l-0.132,0.2l-0.075,0.19l-0.017,0.222l0.077,0.381l0.093,0.191
		l0.093,0.138l0.088,0.083l0.066,0.104l0.044,0.163l0.018,0.219l-0.007,0.363l0.062,0.389l0.081,0.268l0.029,0.303l-0.011,0.694
		l0.033,0.372l-0.04,0.353l-0.417,1.655l-0.307,0.768l-0.033,0.131l0.005,0.156l0.093,0.215l0.088,0.128l0.093,0.109l0.73,0.635
		l0.254,0.277l0.889,1.504l0.038,0.125l0.154,0.864l-0.132,0.665l-0.236,0.613l-0.148,0.276l-0.132,0.163l-0.505,0.355l-0.22,0.11
		l-0.117,0.038l-0.296,0.058l-0.611,0.035l-0.135,0.031l-0.351,0.137l-0.45,0.247l-0.121,0.047l-0.139,0.039l-0.28,0.052
		l-0.148-0.006l-0.285-0.047l-1.039-0.34l-0.439-0.092l-0.154-0.003l-0.132,0.02l-0.115,0.047l-0.093,0.075l-0.077,0.088
		l-0.368,0.779l-0.143,0.107l-0.123,0.018l-0.102-0.064l-0.373-0.31l-0.342-0.18l-0.51-0.17l-0.571-0.122l-0.622-0.058l-1.109,0.062
		l-0.291-0.038l-0.132-0.039l-0.232-0.115l-0.091-0.067l-0.187-0.172l-0.073-0.098l-0.165-0.339l-0.137-0.208l-0.406-0.455
		l-0.121-0.219l-0.148-0.198l-0.17-0.172l-0.496-0.345l-0.091-0.077l-0.088-0.097l-0.073-0.103l-0.346-0.831l-0.082-0.104
		l-0.483-0.523l-0.187-0.162l-0.121-0.062l-0.121-0.044l-0.304-0.043l-0.121-0.049l-0.102-0.067l-0.088-0.087l-0.15-0.192
		l-0.093-0.077l-0.115-0.052l-0.137-0.026l-0.472,0.009l-0.148,0.023l-0.121,0.052l-0.11,0.064l-0.247,0.258l-0.104,0.067
		l-0.139,0.031l-0.143,0.017l-0.121,0.046l-0.088,0.167l-0.115,0.759l-0.112,0.455l-0.069,0.129l-0.104,0.133l-0.166,0.153
		l-0.459,0.316l-0.192,0.165l-0.071,0.09l-0.044,0.133l0.005,0.163l0.477,1.063l0.011,0.154l-0.017,0.169l-0.779,1.489l-0.022,0.052
		l-0.033,0.126l0.004,0.186l0.044,0.259l0.348,0.905l0.115,0.405l0.027,0.189l0.005,0.246l-0.088,0.658l-0.32,1.123l-1.015,2.266
		l0.005,0.255l0.06,0.367l0.362,1.141l0.115,0.235l0.088,0.075l0.128,0.027l0.263-0.036l0.137,0.009l0.097,0.056l0.057,0.14
		l0.011,0.183l-0.055,0.329l-0.137,0.33l-0.062,0.111l-0.135,0.385l-0.044,0.303l-0.018,0.319l0.018,0.465l-0.011,0.152v0.557
		l0.066,0.605l0.004,0.303l-0.033,0.206l-0.066,0.104l-0.157,0.195l-0.066,0.11l-0.051,0.122l0.005,0.178l0.06,0.208l0.165,0.314
		l0.282,0.403l0.066,0.207l0.049,0.316l0.017,1.266l-0.06,0.283l-0.082,0.258l-0.007,0.173l0.062,0.207l0.527,0.811l0.977,1.228
		l0.095,0.076l0.234,0.118l0.139,0.043l0.137,0.029l0.253,0.093l0.11,0.057l0.401,0.29l0.208,0.117l0.198,0.151l0.049,0.12v0.159
		l-0.11,0.246l-0.121,0.13l-0.121,0.093l-0.132,0.04l-0.143,0.015l-0.143-0.015l-0.126-0.04l-0.22-0.105l-0.115-0.002l-0.101,0.048
		l-0.08,0.08l-0.066,0.099l-0.095,0.265l-0.088,0.428l-0.091,0.251l-0.232,0.439l-0.148,0.193l-1.489,1.255l-0.081,0.093
		l-0.066,0.095l-0.062,0.108l-0.044,0.127l-0.011,0.139l0.005,0.168l0.022,0.179l0.057,0.226l0.077,0.179l0.176,0.172l0.269,0.159
		l0.066,0.107l0.016,0.153l-0.073,0.234l-0.22,0.385l-0.197,0.473l-0.478,1.595l0.011,0.156l0.071,0.173l0.329,0.328l0.099,0.194
		l0.062,0.251l0.059,0.499l-0.004,0.839l-0.022,0.147l-0.139,0.551l0.04,0.23l0.121,0.317l0.444,0.696l0.104,0.228l0.055,0.217
		l0.022,0.396l-0.022,0.218l-0.066,0.15l-0.099,0.081l-0.351,0.152l-0.216,0.137l-0.088,0.081l-0.154,0.186l-0.121,0.216
		l-0.051,0.119l-0.174,0.86l-0.046,0.122l-0.119,0.227l-0.044,0.127l-0.011,0.173l0.016,0.195l0.124,0.645l0.238,0.679l0.135,0.224
		l0.168,0.208l0.714,0.671l1.081,0.625l0.11,0.089l0.88,1.138l0.176,0.176l0.757,0.984l0.242,0.216l0.198,0.132l0.132,0.045
		l0.134,0.082l0.132,0.133l0.17,0.215l0.154,0.258l0.093,0.225l0.017,0.322l-0.062,0.157l-0.086,0.113l-0.104,0.061l-0.28,0.222
		l-0.082,0.089l-0.051,0.149l-0.011,0.199l0.04,0.307l-0.084,0.121l-0.11,0.075l-0.135,0.036l-0.095,0.078l-0.049,0.116l0.038,0.209
		l0.128,0.281l0.355,0.52l0.232,0.519l0.009,0.322l0.439,0.391l2.007,0.829l-1.895,0.408l-0.198,0.076l-0.225,0.116l-0.373,0.263
		l-0.329,0.288l-0.369,0.496l-0.17,0.178l-0.137,0.061l-0.176,0.043l-1.01-0.097l-1.286,0.019l-0.331,0.089l-0.494,0.187
		l-3.845,1.883l-0.538,0.388l-0.066,0.098l-0.439,0.152l-1.522,0.068l-0.563,0.521l-0.002,0.002l-4.922-4.617l-0.34-0.457
		l-0.219-0.517l-0.048-0.472l-0.007-0.426l-0.069-0.382l-0.304-0.384l-0.856-0.728l-0.201-0.428l-0.165-0.5l-0.355-0.44
		l-0.443-0.371l-0.278-0.513l0.812-0.111l-0.479-1.762l0.223-0.554l0.999-1.771l0.973-0.66l0.117-0.102l0.113-0.2l-0.08-0.437
		l-0.161-0.437l-0.113-0.198l-0.15-0.19l-0.516-1.259l-0.11-0.453l-0.073-0.154l-0.483-0.232l-0.15-0.095l-0.157,0.041l-0.124-0.029
		l-0.051-0.32l0.033-0.187l0.154-0.355l0.037-0.223l-0.081-0.407l-0.329-0.679l-0.077-0.439v-0.319l-0.037-0.221l-0.139-0.243
		l-1.818-2.542l-0.391-0.776l0.099-0.351l0.53-0.243l0.267-0.575l0.018-0.682l-0.219-0.56l-0.457-0.264l-1.8-0.734l-0.402,0.096
		l-0.066,0.084l-0.659,1.791l-0.154,0.285l-0.329,0.271l-0.717-0.419l-0.765-0.581l-0.706-0.72l-0.494-0.827l-0.205-0.921
		l-0.011-0.853l-0.121-0.827l-0.9-1.41l-0.816-1.715l-0.146-0.55l-0.402-0.708l-0.761-0.714l-0.219-0.421l0.761,0.095l0.256,0.032
		l0.311,0.206l0.724,1.153l0.099,0.311l0.157,0.261l0.384,0.243l0.377,0.052l0.875-0.162l1.654,0.044l1.376-0.664l2.462-1.646
		l0.688-0.229l1.873,0.052l1.687-0.471l0.172,0.046l0.103-0.067l0.216-0.426l0.282-1.506l-0.253-1.518l-0.402-1.484l-0.176-1.399
		l-0.018-0.825l-0.11-0.668l-0.435-1.388l-0.033-0.308l0.139-0.976l-0.15-0.474l-0.373-0.395l-0.856-0.647l-0.798-0.797
		l-0.143-0.447l0.362-0.364l0.743-0.536l0.505-0.547l0.252-0.581l0.23-1.438l0.384-0.702l2.199-1.704l0.501-0.576l0.238-0.534
		l0.154-2.936l-0.091-0.671l-0.26-0.708l-0.315-0.35l-0.944-0.772l-0.198-0.342l0.139-0.402l0.329-0.056l0.402,0.033l0.34-0.138
		l0.278-0.738l-0.322-0.648l-0.494-0.702l-0.227-0.901l-0.055-0.374l-0.263-0.724l-0.022-0.269l1.178-1.624l1.174-1.049l0.304-0.401
		l0.234-0.548l-0.022-0.21l-0.135-0.186l-0.117-0.474l-0.073-0.749l0.033-0.684l0.311-0.463L271.425,62.947z"/>
	
	
	
	
	
	
	
	<path class="st0" d="M360.665,57.162l0.369,0.479l0.24,0.44l0.115,0.59l0.086,1.229l0.21,0.647l0.291,0.472l0.723,0.903
		l0.285,0.492l0.121,0.624v0.61l0.106,0.553l0.435,0.455l0.622,0.395l1.019,0.445l1.015,0.303l0.615-0.041l0.287-0.477l0.365,0.541
		l0.17,0.302l0.037,0.103l0.029,0.137l-0.049,0.125l-0.143,0.095l-0.132,0.073l-0.145,0.041l-0.223,0.112l-0.194,0.16l-0.115,0.186
		l-0.137,0.27l-0.23,0.584l-0.252,0.448l-0.966,0.757l-0.15,0.192l-0.055,0.162l-0.027,0.199l0.057,0.551l0.044,0.168l0.165,0.357
		l0.274,0.402l0.093,0.086l0.203,0.14l0.219,0.099l0.285,0.064l0.143-0.004l0.115-0.037l0.082-0.087l0.066-0.11l0.077-0.099
		l0.115-0.046l0.137,0.008l0.117,0.044l0.091,0.084l0.172,0.329l0.099,0.076l0.121,0.041l0.274-0.002l0.137,0.014l0.115,0.049
		l0.082,0.09l0.099,0.23l0.027,0.133v0.143l-0.088,0.436l-0.055,0.631l-0.318,1.416l0.027,0.169l0.071,0.251l0.137,0.367
		l0.241,0.432l0.044,0.116l0.033,0.142l0.022,0.156l0.011,0.311l-0.049,0.452v0.151l0.033,0.13l0.048,0.117l0.062,0.11l0.049,0.122
		l0.027,0.142l0.044,0.466l0.066,0.264l0.071,0.093l0.086,0.073l0.113,0.066l0.099,0.08l0.077,0.093l-0.055,0.195l-0.183,0.258
		l-0.505,0.469l-0.269,0.191l-0.208,0.116l-0.123,0.038l-0.135,0.03l-0.392,0.13l-0.132,0.026l-0.132,0.012l-0.154,0.067
		l-0.17,0.145l-0.242,0.486l-0.099,0.261l-0.066,0.215l0.011,0.133l0.033,0.125l0.055,0.111l0.066,0.101l0.543,0.66l0.018,0.116
		l-0.055,0.113l-0.205,0.066l-0.172,0.011l-0.146-0.034l-0.137-0.051l-0.11-0.056l-0.291-0.22l-0.644-0.389l-0.253-0.106
		l-0.252-0.078l-0.258-0.043l-0.21-0.013l-0.322,0.013l-0.143,0.022l-0.121,0.049l-0.165,0.229l-0.176,0.384l-0.304,0.919
		l-0.011,0.353l0.073,0.196l0.483,0.006l0.307,0.032l0.137,0.035l0.247,0.102l0.093,0.082l0.066,0.096l0.044,0.128l0.017,0.144
		l-0.006,0.138l-0.044,0.201l-0.126,0.156l-0.23,0.22l-0.565,0.404l-0.302,0.154l-0.241,0.077l-0.809-0.028l-0.143,0.023
		l-0.126,0.038l-0.11,0.056l-0.192,0.15l-2.082,3.566l-0.293,0.955l-3.926-0.289l-0.951,0.179l-0.335-0.008l-0.258-0.053
		l-0.236-0.113l-0.777-0.272l-0.234-0.033l-0.143,0.031l-0.247,0.138l-0.499,0.12l-0.115,0.051l-0.477,0.374l-0.831-0.441
		l-0.401,0.009l-0.219,0.055l-0.134-0.046l-0.088-0.087l-0.048-0.124l-0.04-0.13l-0.015-0.136l-0.011-0.142l0.026-0.136l0.073-0.278
		v-0.208l-0.128-0.313l-0.329-0.53l-0.51-0.465l-0.351-0.227l-0.313-0.147l-1.72-1.032l-0.501-0.404l-0.088-0.11l-0.165-0.353
		l-0.103-0.308l-0.099-0.209l-0.216-0.364l-0.143-0.171l-0.143-0.113l-0.236-0.09l-0.121-0.028l-0.214-0.018l-0.291,0.003
		l-0.192-0.026l-0.227-0.054l-0.521-0.25l-0.167-0.053l-0.124,0.014l-0.263,0.061h-0.192l-0.22-0.024l-0.353-0.097l-0.143-0.053
		l-0.081-0.046l-0.044-0.062l-0.04-0.095l-0.015-0.122l0.047-0.258l0.007-0.141l-0.022-0.133l-0.068-0.152l-0.587-0.912
		l-0.143-0.078l-0.154-0.028l-0.198-0.003l-0.247-0.054l-0.408-0.157l-0.187-0.131l-0.126-0.123l-0.115-0.223l-0.194-0.484
		l-0.212-0.805l-0.017-0.147l-0.066-0.206l-0.115-0.262l-0.889-1.423l-0.099-0.24l-0.066-0.203l-0.011-0.156l-0.029-0.14
		l-0.044-0.14l-0.258-0.571l-0.121-0.391l-0.225-0.466l-0.088-0.245l-0.104-0.563l-0.011-0.149l-0.027-0.146l-0.006-0.148
		l-0.022-0.146l-0.077-1.267l0.017-0.317l0.027-0.143l0.055-0.128l0.187-0.329v-0.187l-0.066-0.266l-0.265-0.521l-0.102-0.284
		l-0.044-0.233l0.06-0.424l-0.016-0.145l-0.329-1.182l-0.055-0.95l0.675-0.084l0.488-0.303l0.457-0.359l0.252-0.146l0.209-0.084
		l5.773-1.008l0.214,0.133l0.082,0.093l0.066,0.104l0.049,0.126l0.038,0.14l0.011,0.15v0.156l-0.384,1.346l-0.044,0.301l0.005,0.321
		l0.06,0.277l0.121,0.144l0.198,0.137l0.434,0.205l0.247,0.052l0.192,0.009l0.254-0.081l0.23-0.116l0.368-0.277l1.218-1.185
		l0.181-0.089l0.271-0.095l0.549-0.127l0.285-0.037l0.214-0.004l0.115,0.035l0.357,0.168l0.408,0.132l0.198,0.006l0.146-0.038
		l0.068-0.09l0.044-0.101l0.027-0.12v-0.131l-0.017-0.236l0.028-0.083l0.06-0.078l0.082-0.062l0.093-0.054l1.421-0.579l0.161-0.108
		l0.06-0.091l0.033-0.114l0.016-0.131l0.006-0.143l-0.033-0.512l0.011-0.032l0.011-0.041l0.044-0.074l0.209-0.224l0.269-0.337
		l0.049-0.087l0.027-0.109l-0.011-0.111l-0.038-0.116l-0.024-0.121l-0.004-0.119l0.038-0.1l0.066-0.075l0.17-0.134l0.077-0.075
		l0.059-0.083l0.046-0.107l0.022-0.114l-0.013-0.12l-0.07-0.232l-0.027-0.127v-0.136l0.055-0.224l0.088-0.187l0.291-0.761
		l0.161-0.29l0.077-0.091l0.088-0.086l0.904-0.622l0.265-0.137l0.22-0.084l0.143-0.019l0.869,0.066l0.346-0.017l0.176-0.06
		l0.121-0.091l0.06-0.096l0.038-0.106l0.066-0.109l0.11-0.137l0.263-0.22l0.188-0.093l0.187-0.052l0.977-0.146l0.247-0.079
		l0.17-0.075l0.274-0.235l1.33-1.581L360.665,57.162z"/>
	<path class="st0" d="M367.204,65.281l0.397-0.662l0.745-0.562l0.929-0.047l2.885,1.116l0.512,0.293l0.316,0.361l0.26,0.376
		l0.265,0.097l0.34-0.49l1.623-1.542l1.436-1.728l0.432-0.754l0.135-0.171l0.338-0.217l0.185-0.025l0.207,0.043l3.137-0.039
		l1.001,0.108l0.77,0.291l1.555,0.967l0.977,0.37l1.021,0.082l0.991-0.122l0.856-0.24l0.406-0.225l0.318-0.23l0.377-0.101
		l0.604,0.163l0.468,0.264l0.282,0.297l0.172,0.375l0.135,0.494l0.073,0.915l-0.185,1.064l-0.477,0.831l-0.812,0.223l-0.794,0.509
		l-0.534,1.336l-0.192,1.532l0.216,1.117l0.232,0.174l0.6,0.125l0.205,0.149l0.124,0.312l-0.013,0.215l-0.059,0.189l0.009,0.232
		l0.721,3.135l-0.11,2.199l0.084,0.883l0.232,0.58l0.415,0.462l1.548,1.378l0.946,1.081l0.302,1.108l-1.504,1.463l-0.245,0.54
		l-0.344,1.221l-0.355,0.56l-0.862,1.002l-0.284,0.672l-0.057,0.721l0.188,2.239l-0.165,0.639l-0.523,1.205l-0.119,0.607
		l0.192,0.679l0.832,0.838l0.188,0.592l-0.19,0.568l-0.454,0.613l-0.984,0.943l-0.311,0.159l-0.622,0.231l-0.243,0.245l-0.097,0.367
		l0.035,0.832l-0.134,0.41l-0.47,0.464l-2.272,1.265l-0.145,0.174l-0.066,0.377l-0.256,0.718l-1.03,1.066l-0.188,0.748l0.238,0.647
		l0.496,0.671l0.817,0.778l-0.235,0.322l-2.235,1.807l-1.328,0.856l-1.676,1.552l-0.45,0.735l-0.051,0.111l-0.004,0.117l0.055,0.09
		l0.091,0.064l0.084,0.11l0.037,0.17l-0.088,0.333l-0.091,0.173l-0.177,0.168l-0.62,0.452l-0.148,0.178l-0.027,0.139l0.088,0.08
		l0.214,0.119l0.104,0.094l0.06,0.136l-0.005,0.23l-0.06,0.131l-0.09,0.095l-0.629,0.377l-0.15,0.141l-0.092,0.137l-0.143,0.42
		l-0.435,0.848l-0.099,0.299l-0.093,0.141l-0.121,0.098l-0.132,0.043l-0.132,0.031l-0.779,0.568l-1.44,1.297l-0.302,0.215
		l-0.148,0.024l-0.611-0.026l-0.593-0.107l-0.148-0.006l-0.735,0.101l-0.302-0.006l-0.128-0.046l-0.192-0.172l-0.099-0.073
		l-0.104-0.046l-0.121-0.037l-0.565-0.031l-0.241-0.056l-0.126-0.016l-0.549,0.02l-0.121-0.027l-0.424,0.003l-0.997-0.42
		l-0.307-0.013l-0.155,0.075l-0.293,0.318l-0.479,0.377l-0.174,0.064l-0.199,0.005l-0.441-0.045l-0.178,0.028l-0.139,0.125
		l-0.113,0.291l-0.809,0.036l-0.406,0.088l-0.154,0.003l-0.556-0.117l-0.165,0.013l-0.181,0.048l-0.23,0.104l-0.17,0.056
		l-0.159,0.02l-0.154-0.018l-0.11-0.038l-0.203-0.122l0.077-0.436l-0.655-3.449l-0.011-0.405l0.095-0.079l0.113-0.06l0.249-0.092
		l0.208-0.122l0.296-0.215l0.113-0.053l0.413-0.097l0.17-0.182l0.177-0.306l0.307-0.822l0.113-0.485l0.117-0.845l0.049-0.205
		l0.302-0.7l0.104-0.194l0.351-0.468l0.28-0.473l0.055-0.2l-0.011-0.163l-0.049-0.11l-0.22-0.305l-0.033-0.184l-0.011-0.252
		l0.06-0.837l-0.022-0.309l0.038-0.134l0.053-0.102l0.051-0.043l0.176-0.116l0.282-0.238l0.081-0.095l0.084-0.13l0.67-1.652
		l0.115-0.412l0.049-0.35l-0.027-0.28l0.005-0.526l-0.033-0.265l-0.038-0.204l-0.148-0.362l-0.071-0.094l-0.101-0.064l-0.143-0.02
		l-0.598,0.014l-0.104-0.026l-0.066-0.024l-0.088-0.048l-0.062-0.045l-0.059-0.054l-0.115-0.189l-0.049-0.11l-0.077-0.096
		l-0.099-0.067l-0.132-0.042l-0.148-0.021l-0.296,0.013l-0.423,0.071h-0.15l-0.428-0.079l-0.143,0.004l-0.132,0.025l-0.132,0.046
		l-0.329,0.184l-0.115,0.031l-0.132-0.022l-0.104-0.05l-0.077-0.09l-0.062-0.101l-0.044-0.111l-0.289-1.98l-0.051-0.135
		l-0.049-0.109l-0.346-0.454l-0.044-0.242l-0.011-0.194l0.181-1.233l0.038-0.142l0.055-0.115l0.077-0.088l0.227-0.158l0.102-0.12
		l0.007-0.112l-0.044-0.106l-0.095-0.07l-0.121-0.06l-0.139-0.046l-0.439-0.055l-0.124-0.046l-0.115-0.134l-0.115-0.219l-0.143-0.43
		l-0.044-0.323v-0.238l0.016-0.169l0.066-0.3l0.082-0.251l0.121-0.223l0.143-0.208l0.236-0.259l0.093-0.075l0.22-0.291l0.126-0.312
		l-0.016-0.165l-0.082-0.107l-0.137-0.04l-0.302-0.047l-0.165-0.075l-0.143-0.132l-0.17-0.335l-0.044-0.28l0.026-0.364l-0.015-0.191
		l-0.073-0.125l-0.267-0.102l-0.161-0.077l-0.179-0.209l-0.033-0.193l0.015-0.139l0.143-0.408l0.293-0.955l2.082-3.566l0.192-0.15
		l0.11-0.056l0.126-0.038l0.143-0.023l0.809,0.028l0.241-0.077l0.302-0.154l0.565-0.404l0.23-0.22l0.126-0.156l0.044-0.201
		l0.006-0.138l-0.017-0.144l-0.044-0.128l-0.066-0.096l-0.093-0.082L364.14,84.6l-0.137-0.035l-0.307-0.032l-0.483-0.006
		l-0.073-0.196l0.011-0.353l0.304-0.919l0.176-0.384l0.165-0.229l0.121-0.049l0.143-0.022l0.322-0.013l0.21,0.013l0.258,0.043
		l0.252,0.078l0.253,0.106l0.644,0.389l0.291,0.22l0.11,0.056l0.137,0.051l0.146,0.034l0.172-0.011l0.205-0.066l0.055-0.113
		l-0.018-0.116l-0.543-0.66l-0.066-0.101l-0.055-0.111l-0.033-0.125l-0.011-0.133l0.066-0.215l0.099-0.261l0.242-0.486l0.17-0.145
		l0.154-0.067l0.132-0.012l0.132-0.026l0.392-0.13l0.135-0.03l0.123-0.038l0.208-0.116l0.269-0.191l0.505-0.469l0.183-0.258
		l0.055-0.195l-0.077-0.093l-0.099-0.08l-0.113-0.066l-0.086-0.073l-0.071-0.093l-0.066-0.264l-0.044-0.466l-0.027-0.142
		l-0.049-0.122l-0.062-0.11l-0.048-0.117l-0.033-0.13v-0.151l0.049-0.452l-0.011-0.311l-0.022-0.156l-0.033-0.142l-0.044-0.116
		l-0.241-0.432l-0.137-0.367l-0.071-0.251l-0.027-0.169l0.318-1.416l0.055-0.631l0.088-0.436v-0.143l-0.027-0.133l-0.099-0.23
		l-0.082-0.09l-0.115-0.049l-0.137-0.014l-0.274,0.002l-0.121-0.041l-0.099-0.076l-0.172-0.329l-0.091-0.084l-0.117-0.044
		l-0.137-0.008l-0.115,0.046l-0.077,0.099l-0.066,0.11l-0.082,0.087l-0.115,0.037l-0.143,0.004l-0.285-0.064l-0.219-0.099
		l-0.203-0.14l-0.093-0.086l-0.274-0.402l-0.165-0.357l-0.044-0.168l-0.057-0.551l0.027-0.199l0.055-0.162l0.15-0.192l0.966-0.757
		l0.252-0.448l0.23-0.584l0.137-0.27l0.115-0.186l0.194-0.16l0.223-0.112l0.145-0.041l0.132-0.073l0.143-0.095l0.049-0.125
		l-0.029-0.137l-0.037-0.103l-0.17-0.302L367.204,65.281z"/>

		
	
	
	
	<path class="st0" d="M335.791,68.23l0.055,0.95l0.329,1.182l0.016,0.145l-0.06,0.424l0.044,0.233l0.102,0.284l0.265,0.521
		l0.066,0.266v0.187l-0.187,0.329l-0.055,0.128l-0.027,0.143l-0.017,0.317l0.077,1.267l0.022,0.146l0.006,0.148l0.027,0.146
		l0.011,0.149l0.104,0.563l0.088,0.245l0.225,0.466l0.121,0.391l0.258,0.571l0.044,0.14l0.029,0.14l0.011,0.156l0.066,0.203
		l0.099,0.24l0.889,1.423l0.115,0.262l0.066,0.206l0.017,0.147l0.212,0.805l0.194,0.484l0.115,0.223l0.126,0.123l0.187,0.131
		l0.408,0.157l0.247,0.054l0.198,0.003l0.154,0.028l0.143,0.078l0.587,0.912l0.068,0.152l0.022,0.133l-0.007,0.141l-0.047,0.258
		l0.015,0.122l0.04,0.095l0.044,0.062l0.081,0.046l0.143,0.053l0.353,0.097l0.22,0.024h0.192l0.263-0.061l0.124-0.014l0.167,0.053
		l0.521,0.25l0.227,0.054l0.192,0.026l0.291-0.003l0.214,0.018l0.121,0.028l0.236,0.09l0.143,0.113l0.143,0.171l0.216,0.364
		l0.099,0.209l0.103,0.308l0.165,0.353l0.088,0.11l0.501,0.404l1.72,1.032l0.313,0.147l0.351,0.227l0.51,0.465l0.329,0.53
		l0.128,0.313v0.208l-0.073,0.278l-0.026,0.136l0.011,0.142l0.015,0.136l0.04,0.13l0.048,0.124l0.088,0.087l0.134,0.046l0.219-0.055
		l0.401-0.009l0.831,0.441l0.351,0.755l-0.011,0.539l-0.084,0.279l-0.055,0.122l-0.198,0.338l-0.194,0.235l-0.042,0.068l-0.17,0.354
		l-0.038,0.191l-0.011,0.171l0.077,0.261l0.044,0.124l0.066,0.234l0.159,1.029l0.015,0.608l-0.066,0.358l-0.19,0.693L350.759,98
		v0.194l0.066,0.177l0.088,0.172l0.264,0.341l0.088,0.289l-0.033,0.315l-0.113,0.613l-0.102,0.288l-0.091,0.186l-0.104,0.054
		l-0.132,0.017l-0.121-0.029l-0.23-0.081l-0.115,0.009l-0.11,0.05l-0.203,0.137l-0.126,0.041l-0.285,0.05l-0.161,0.071l-0.154,0.134
		l-0.187,0.303l-0.071,0.203l-0.027,0.245l0.038,0.673l-0.016,0.239l-0.027,0.179l-0.176,0.534l-0.549,0.86l-1.182,2.321
		l-0.126,0.153l-0.187,0.151l-0.216,0.125l-0.487,0.198l-0.104,0.064l-0.099,0.069l-0.077,0.09l-0.485,0.972l-0.104,0.16
		l-0.187,0.157l-0.088,0.121l-1.026,1.889l-0.137,0.182l-0.181,0.148l-0.22,0.118l-0.26,0.083l-0.582,0.091l-0.252,0.072l-0.11,0.09
		l-0.104,0.133l-0.43,0.68l-0.3,0.379l-0.787,0.574l-0.082,0.082l-0.099,0.121l-0.538,0.928l-1.116,1.562l-0.165,0.289l-0.088,0.225
		l0.044,0.486l-0.022,0.263l-0.066,0.141l-1.226,1.649l-0.209,0.186l-0.155,0.029l-0.179,0.055l-0.181,0.098l-0.543,0.458
		l-0.227,0.119l-0.121,0.05l-0.263,0.07l-0.148,0.074l-0.165,0.113l-0.379,0.411l-0.139,0.104l-0.124,0.04l-0.143,0.004l-0.121-0.04
		l-0.099-0.07l-0.148-0.188l-0.104-0.064l-0.121-0.051l-0.263-0.069l-0.117-0.044l-0.154,0.006l-0.165,0.063l-0.236,0.17
		l-0.11,0.153l-0.055,0.205l-0.017,0.215l-0.082,0.338l-0.049,0.136l-0.044,0.078l-0.044,0.038l-0.798,0.86l-1.676,1.268
		l-3.865,4.432l-0.287,0.414l-0.39,0.721l-0.104,0.15l-0.335,0.331l-0.099,0.079l-0.099,0.063l-0.115,0.051l-0.137,0.01
		l-0.406-0.067l-0.137,0.013l-0.395,0.101l-0.501,0.034l-0.214,0.07l-0.104,0.107l-0.055,0.136l-0.006,0.305l0.028,0.307l0.06,0.286
		l0.082,0.244l0.455,0.727l0.54,0.66l0.253,0.414l0.077,0.087l0.104,0.073l0.121,0.052l0.137,0.035l0.296,0.022l0.324-0.02
		l0.252-0.081l0.419-0.261l0.554-0.48l0.093-0.068l0.121-0.049l0.121-0.035l0.154-0.001l0.423,0.075l0.165-0.055l0.177-0.132
		l0.494-0.664l0.313-0.176l0.208,0.588l0.011,0.2l-0.137,0.686l-0.005,0.23l0.02,0.182v0.173l-0.075,0.204l-0.232,0.334l-0.141,0.17
		l-0.214,0.211l-0.095,0.159l-0.069,0.224l-0.051,0.468v0.25l0.022,0.198l0.099,0.242v0.13l-0.059,0.118l-0.176,0.077l-0.145-0.013
		l-0.148-0.035l-0.126-0.049l-0.137-0.012l-0.126,0.014l-0.11,0.056l-0.082,0.081l-0.055,0.154l-0.038,0.193l-0.055,0.857
		l0.049,0.103l0.088,0.072l0.247,0.098l0.088,0.084l0.055,0.12l0.016,0.29l0.022,0.13l0.126,0.376l-0.005,0.149l-0.06,0.15
		l-0.176,0.154l-0.269,0.158l-0.099,0.07l-0.06,0.117l-0.044,0.16l-0.006,0.633l-0.143,0.93l0.033,0.184l0.066,0.137l0.066,0.094
		l0.241,0.446l0.077,0.086l0.093,0.075l0.23,0.114l0.099,0.069l0.011,0.181l-0.06,0.273l-0.192,0.504l-0.038,0.272l0.004,0.184
		l0.073,0.099l0.093,0.077l0.236,0.11l0.082,0.08l0.203,0.296l0.099,0.08l0.11,0.063l0.384,0.126l0.112,0.064l0.093,0.082
		l0.066,0.098l0.049,0.115l0.11,0.53l0.016,0.21l-0.04,0.342l-0.086,0.226l-0.093,0.139l-0.104,0.104l-0.099,0.069l-0.181,0.149
		l-0.15,0.198l-0.059,0.116l-0.044,0.127l-0.066,0.274l-0.007,0.315l0.11,0.72l-0.011,0.159l-0.037,0.155l-0.095,0.155l-0.099,0.093
		l-0.11,0.071l-0.071,0.083l-0.044,0.123l-0.027,0.284l-0.044,0.119l-0.099,0.079l-0.373,0.131l-0.093,0.06l-0.181,0.155
		l-0.241,0.112l-0.285,0.052l-0.121,0.043l-0.084,0.075l-0.07,0.089l-0.117,0.075l-0.165,0.043l-0.302-0.104l-0.192-0.135
		l-0.154-0.292l-0.181-0.457l-0.137-0.214l-0.545-0.629l-0.157-0.095l-0.117-0.053l-0.819-0.109l-1.295-2.117l-0.106-0.228
		l-0.13-0.629l-0.099-0.232l-0.049-0.358l0.093-0.598l0.005-0.311l-0.022-0.144l-0.077-0.264l-0.099-0.113l-0.148-0.094
		l-0.302-0.075l-0.809-0.049l-0.132,0.029l-0.124,0.043l-0.21,0.129l-0.181,0.161l-0.077,0.086l-0.137,0.196l-0.06,0.121
		l-0.049,0.127l-0.082,0.412l-0.049,0.112l-0.082,0.099l-0.521,0.487l-0.302,0.387l-0.077,0.075l-0.106-0.003l-0.102-0.037
		l-0.787-0.447l-0.165-0.132l-0.11-0.061l-0.242-0.103l-0.154-0.015h-0.15l-0.296,0.035l-0.157-0.035l-0.166-0.077l-0.203-0.19
		l-0.154-0.106l-0.148-0.077l-0.148-0.03l-0.159-0.015l-0.159,0.004l-0.296-0.032l-0.128-0.047l-0.11-0.059l-0.318-0.204
		l-0.247-0.101l-0.137-0.093l-0.126-0.151l-0.165-0.31l-0.123-0.168l-0.124-0.114l-0.362-0.149l-0.077-0.2l-0.049-0.334l0.137-1.142
		l0.39-1.312l0.165-0.408l0.033-0.128v-0.289l-0.167-1.46l-0.119-0.524l-0.225-0.511l-0.22-0.356l-0.062-0.303l0.051-0.556h0.296
		l0.285,0.049l0.307,0.013l0.121-0.029l0.22-0.117l0.099-0.074l0.081-0.089l0.066-0.116l0.128-0.517l0.139-1.342l-0.011-0.141
		l0.015-0.163l0.066-0.167l0.188-0.204l0.121-0.097l0.181-0.112l0.088-0.121l0.055-0.199v-0.661l0.044-0.23l0.165-0.23l0.132-0.118
		l0.132-0.093l0.22-0.121l0.088-0.081l0.077-0.089l0.296-0.593l0.132-0.129l0.106-0.124l0.055-0.112l-0.051-0.222l-0.059-0.137
		l-0.399-0.647l-0.009-0.135l0.038-0.144l0.15-0.155l0.146-0.082l0.15-0.058l0.137-0.032l0.291-0.034l0.291,0.031l0.412,0.104
		l0.291,0.043l0.126-0.012l0.088-0.084l0.022-0.141l-0.132-0.376l-0.066-0.139l-0.049-0.123l-0.033-0.121l-0.005-0.115l0.055-0.101
		l0.159-0.032l0.28,0.015l0.11-0.045l0.077-0.099l0.033-0.142l-0.055-0.219l-0.077-0.13l-0.494-0.566l-0.181-0.312l-0.082-0.097
		l-0.181-0.163l-0.099-0.069l-0.082-0.076l-0.088-0.101l-0.066-0.1l-0.082-0.094l-0.088-0.078l-0.11-0.063l-0.554-0.125
		l-0.117-0.061l-0.077-0.091l-0.038-0.126l0.013-0.593l-0.029-0.133l-0.06-0.098l-0.093-0.078l-0.313-0.198l-0.082-0.096
		l-0.055-0.109l-0.011-0.144l0.077-1.009l-0.007-0.203l-0.02-0.153l-0.088-0.294l-0.187-0.448l-0.066-0.104l-0.077-0.093
		l-0.121-0.21l-0.143-0.354l-0.313-0.554l-0.051-0.12l-0.037-0.125l-0.099-1.203l0.066-0.591l-0.022-0.293l-0.062-0.281
		l-0.026-0.304l-0.062-0.268l-0.115-0.221l-0.225-0.291l-0.055-0.113l-0.027-0.134l0.017-0.44l-0.011-0.147l-0.038-0.136
		l-0.104-0.225l-0.494-0.697l-0.049-0.113l-0.192-0.669l-0.044-0.281L312,112.647l0.053-0.176l0.154-0.188l0.452-0.273l0.664-0.303
		l0.132-0.032l0.143,0.006l0.139,0.03l0.132,0.01l0.154-0.039l0.417-0.2l0.148-0.008l0.137,0.043l0.11,0.066l0.11,0.054l0.121-0.033
		l0.102-0.123l0.09-0.305l0.033-0.196l0.049-0.158l0.066-0.117l0.187-0.268l0.117-0.126l0.159-0.116l0.492-0.182l0.172-0.095
		l0.11-0.155l0.253-0.615l0.187-0.324l0.115-0.247l0.033-0.133l0.016-0.145l-0.011-0.139l0.011-0.136l0.11-0.199l0.54-0.786
		l0.28-0.525l1.125-1.542l0.39-0.67l0.04-0.132l0.099-0.24l0.154-0.149l0.236-0.161l0.549-0.233l0.296-0.066l0.225-0.012
		l0.417,0.079h0.156l0.152-0.04l0.156-0.071l0.258-0.212l0.044-0.052l0.066-0.262l0.066-0.829l0.247-0.203l0.071-0.072l0.077-0.175
		l0.033-0.224l0.005-0.427l0.049-0.254l0.146-0.232l0.15-0.086l0.263-0.121l0.106-0.143l0.093-0.214l0.11-0.448l0.038-0.255
		l-0.077-0.271l-0.115-0.092l-0.159-0.053l-0.161-0.013l-0.132-0.029l-0.126-0.043l-0.23-0.117l-0.088-0.079l-0.022-0.162
		l0.049-0.234l0.176-0.384l0.143-0.179l0.143-0.102l0.088-0.086l0.033-0.128l-0.069-0.211l-0.26-0.509l0.022-0.275l0.088-0.392
		l0.479-1.414l0.126-0.21l0.324-0.372l0.069-0.11l0.057-0.191l0.039-0.277l-0.017-0.553l-0.038-0.277l-0.049-0.201l-0.071-0.099
		l-0.115-0.215l-0.099-0.254l-0.112-0.558l-0.08-0.255l-0.051-0.819l-0.099-0.124l-0.099-0.024l-0.234,0.096l-0.134,0.015
		l-0.126-0.027l-0.088-0.072l-0.06-0.094l0.022-0.178l0.104-0.232l0.318-0.407l0.194-0.181l0.176-0.123l0.456-0.175l0.23-0.128
		l0.093-0.07l0.11-0.24l0.093-0.344l0.165-1.146v-0.273l-0.071-0.276l-0.176-0.506l-0.022-0.136l0.181-0.328l0.825-0.535
		l0.971-0.119l0.132-0.044l0.115-0.056l0.093-0.063l0.186-0.154l1.621-1.932l0.11-0.093l0.214-0.139l0.088-0.035l0.194-0.048
		l0.278-0.03l0.474-0.003l0.137-0.029l0.126-0.043l0.104-0.152l0.11-0.232l0.137-0.564l0.126-0.33l0.236-0.348l0.148-0.145
		l0.121-0.166l0.073-0.189l0.037-0.385l-0.011-0.224l-0.044-0.184l-0.066-0.095l-0.104-0.059l-0.132-0.009l-0.137,0.008
		l-0.137-0.023l-0.09-0.063l-0.037-0.134l0.022-0.171l0.159-0.63l0.017-0.612l0.208-0.92l0.017-0.196l-0.017-0.317l0.044-0.252
		l0.121-0.345l0.721-1.518l0.055-0.215l0.005-0.174l-0.022-0.142l-0.011-0.173l0.005-0.193l0.048-0.266l0.018-0.52l0.066-0.602
		l-0.022-0.463l-0.038-0.288l-0.044-0.122l-0.055-0.119l-0.203-0.317l-0.106-0.237l-0.037-0.282l0.011-0.151l0.077-0.609
		l0.038-0.131l0.049-0.137l0.406-0.612l0.049-0.128l0.017-0.141l-0.006-0.139l-0.033-0.14l-0.011-0.136l0.033-0.144l0.066-0.127
		l0.203-0.247l0.527-0.784l0.121-0.138l0.084-0.071l0.102-0.059l0.128-0.049l0.135-0.023l0.161,0.016l0.165,0.084l0.214,0.167
		l0.082,0.28l0.055,0.259l0.088,0.27l0.23,0.386l0.669,0.314l0.373,0.455L335.791,68.23z"/>
	
	
	
	<path class="st0" d="M359.338,91.262l-0.143,0.408l-0.015,0.139l0.033,0.193l0.179,0.209l0.161,0.077l0.267,0.102l0.073,0.125
		l0.015,0.191l-0.026,0.364l0.044,0.28l0.17,0.335l0.143,0.132l0.165,0.075l0.302,0.047l0.137,0.04l0.082,0.107l0.016,0.165
		l-0.126,0.312l-0.22,0.291l-0.093,0.075l-0.236,0.259l-0.143,0.208l-0.121,0.223l-0.082,0.251l-0.066,0.3l-0.016,0.169v0.238
		l0.044,0.323l0.143,0.43l0.115,0.219l0.115,0.134l0.124,0.046l0.439,0.055l0.139,0.046l0.121,0.06l0.095,0.07l0.044,0.106
		l-0.007,0.112l-0.102,0.12l-0.227,0.158l-0.077,0.088l-0.055,0.115l-0.038,0.142l-0.181,1.233l0.011,0.194l0.044,0.242l0.346,0.454
		l0.049,0.109l0.051,0.135l0.289,1.98l0.044,0.111l0.062,0.101l0.077,0.09l0.104,0.05l0.132,0.022l0.115-0.031l0.329-0.184
		l0.132-0.046l0.132-0.025l0.143-0.004l0.428,0.079h0.15l0.423-0.071l0.296-0.013l0.148,0.021l0.132,0.042l0.099,0.067l0.077,0.096
		l0.049,0.11l0.115,0.189l0.059,0.054l0.062,0.045l0.088,0.048l0.066,0.024l0.104,0.026l0.598-0.014l0.143,0.02l0.101,0.064
		l0.071,0.094l0.148,0.362l0.038,0.204l0.033,0.265l-0.005,0.526l0.027,0.28l-0.049,0.35l-0.115,0.412l-0.67,1.652l-0.084,0.13
		l-0.081,0.095l-0.282,0.238l-0.176,0.116l-0.051,0.043l-0.053,0.102l-0.038,0.134l0.022,0.309l-0.06,0.837l0.011,0.252l0.033,0.184
		l0.22,0.305l0.049,0.11l0.011,0.163l-0.055,0.2l-0.28,0.473l-0.351,0.468l-0.104,0.194l-0.302,0.7l-0.049,0.205l-0.117,0.845
		l-0.113,0.485l-0.307,0.822l-0.177,0.306l-0.17,0.182l-0.413,0.097l-0.113,0.053l-0.296,0.215l-0.208,0.122l-0.249,0.092
		l-0.113,0.06l-0.095,0.079l0.011,0.405l0.655,3.449l-0.077,0.436l-0.803,0.307l-0.423,0.242l-0.055,0.043l-0.571,0.602
		l-0.128,0.212l-0.064,0.197l-0.044,0.63l0.017,0.141l0.033,0.121l-0.038,0.276l-0.104,0.393l-0.424,0.896l-0.241,0.314
		l-0.181,0.121l-0.077-0.096l-0.104-0.243l-0.06-0.105l-0.445-0.575l-0.176-0.324l-0.071-0.098l-0.28-0.226l-0.077-0.092
		l-0.066-0.111l-0.106-0.241l-0.066-0.109l-0.077-0.079l-0.099-0.077l-0.225-0.027l-0.318,0.021l-0.949,0.218l-0.205,0.087
		l-0.088,0.084l-0.146,0.21l-0.227,0.447l-0.165,0.202l-0.735,0.644l-1.193,0.769l-0.856,0.814l-0.242,0.163l-0.282,0.153
		l-1.862,0.717l-0.278,0.069l-0.15,0.011l-0.137-0.014l-0.121-0.048l-0.099-0.067l-0.156-0.04l-0.212,0.017l-0.62,0.213
		l-0.199,0.048l-0.702,0.084l-0.143,0.079l-0.051,0.121l0.024,0.126l-0.053,0.172l-0.166,0.187l-0.642,0.447l-0.148,0.172
		l-0.28,0.386l-0.165,0.086l-0.156,0.019l-0.22-0.109l-0.554-0.466l-0.208-0.141l-0.296-0.089l-0.648,0.011l-2.72,0.19L340.3,129.2
		l-0.187,0.063l-0.456,0.255l-0.417,0.179l-0.133,0.098l-0.099,0.098l-0.17,0.323l-0.384,0.479l-0.066,0.112l-0.159,0.524
		l-0.06,0.101l-0.406,0.459l-0.099,0.078l-0.132,0.034l-0.161-0.006l-0.258-0.128l-0.132-0.109l-0.11-0.108l-0.071-0.106
		l-0.06-0.107l-0.049-0.114l-0.088-0.259l-0.055-0.109l-0.088-0.083l-0.296-0.215l-0.867-0.993l-0.21-0.298l-0.088-0.078
		l-0.099-0.07l-1.484-0.578l-0.412-0.112l-0.291-0.046l-0.183,0.012l-0.201,0.034l-0.516,0.147l-0.34,0.061l-0.139,0.006
		l-0.137,0.02l-0.132,0.038l-0.143,0.058l-0.737,0.454l-0.509,0.53l-1.462,1.911l-0.313,0.176l-0.494,0.664l-0.177,0.132
		l-0.165,0.055l-0.423-0.075l-0.154,0.001l-0.121,0.035l-0.121,0.049l-0.093,0.068l-0.554,0.48l-0.419,0.261l-0.252,0.081
		l-0.324,0.02l-0.296-0.022l-0.137-0.035l-0.121-0.052l-0.104-0.073l-0.077-0.087l-0.253-0.414l-0.54-0.66l-0.455-0.727
		l-0.082-0.244l-0.06-0.286l-0.028-0.307l0.006-0.305l0.055-0.136l0.104-0.107l0.214-0.07l0.501-0.034l0.395-0.101l0.137-0.013
		l0.406,0.067l0.137-0.01l0.115-0.051l0.099-0.063l0.099-0.079l0.335-0.331l0.104-0.15l0.39-0.721l0.287-0.414l3.865-4.432
		l1.676-1.268l0.798-0.86l0.044-0.038l0.044-0.078l0.049-0.136l0.082-0.338l0.017-0.215l0.055-0.205l0.11-0.153l0.236-0.17
		l0.165-0.063l0.154-0.006l0.117,0.044l0.263,0.069l0.121,0.051l0.104,0.064l0.148,0.188l0.099,0.07l0.121,0.04l0.143-0.004
		l0.124-0.04l0.139-0.104l0.379-0.411l0.165-0.113l0.148-0.074l0.263-0.07l0.121-0.05l0.227-0.119l0.543-0.458l0.181-0.098
		l0.179-0.055l0.155-0.029l0.209-0.186l1.226-1.649l0.066-0.141l0.022-0.263l-0.044-0.486l0.088-0.225l0.165-0.289l1.116-1.562
		l0.538-0.928l0.099-0.121l0.082-0.082l0.787-0.574l0.3-0.379l0.43-0.68l0.104-0.133l0.11-0.09l0.252-0.072l0.582-0.091l0.26-0.083
		l0.22-0.118l0.181-0.148l0.137-0.182l1.026-1.889l0.088-0.121l0.187-0.157l0.104-0.16l0.485-0.972l0.077-0.09l0.099-0.069
		l0.104-0.064l0.487-0.198l0.216-0.125l0.187-0.151l0.126-0.153l1.182-2.321l0.549-0.86l0.176-0.534l0.027-0.179l0.016-0.239
		l-0.038-0.673l0.027-0.245l0.071-0.203l0.187-0.303l0.154-0.134l0.161-0.071l0.285-0.05l0.126-0.041l0.203-0.137l0.11-0.05
		l0.115-0.009l0.23,0.081l0.121,0.029l0.132-0.017l0.104-0.054l0.091-0.186l0.102-0.288l0.113-0.613l0.033-0.315l-0.088-0.289
		l-0.264-0.341l-0.088-0.172l-0.066-0.177V98l0.033-0.254l0.19-0.693l0.066-0.358l-0.015-0.608l-0.159-1.029l-0.066-0.234
		l-0.044-0.124l-0.077-0.261l0.011-0.171l0.038-0.191l0.17-0.354l0.042-0.068l0.194-0.235l0.198-0.338l0.055-0.122l0.084-0.279
		l0.011-0.539l-0.351-0.755l0.477-0.374l0.115-0.051l0.499-0.12l0.247-0.138l0.143-0.031l0.234,0.033l0.777,0.272l0.236,0.113
		l0.258,0.053l0.335,0.008l0.951-0.179L359.338,91.262z"/>
	<path class="st0" d="M322.601,101.922l-0.066,0.829l-0.066,0.262l-0.044,0.052l-0.258,0.212l-0.156,0.071l-0.152,0.04h-0.156
		l-0.417-0.079l-0.225,0.012l-0.296,0.066l-0.549,0.233l-0.236,0.161l-0.154,0.149l-0.099,0.24l-0.04,0.132l-0.39,0.67l-1.125,1.542
		l-0.28,0.525l-0.54,0.786l-0.11,0.199l-0.011,0.136l0.011,0.139l-0.016,0.145l-0.033,0.133l-0.115,0.247l-0.187,0.324l-0.253,0.615
		l-0.11,0.155l-0.172,0.095l-0.492,0.182l-0.159,0.116l-0.117,0.126l-0.187,0.268l-0.066,0.117l-0.049,0.158l-0.033,0.196
		l-0.09,0.305l-0.102,0.123l-0.121,0.033l-0.11-0.054l-0.11-0.066l-0.137-0.043l-0.148,0.008l-0.417,0.2l-0.154,0.039l-0.132-0.01
		l-0.139-0.03l-0.143-0.006l-0.132,0.032l-0.664,0.303l-0.452,0.273l-0.154,0.188L312,112.647l0.148,0.517l0.044,0.281l0.192,0.669
		l0.049,0.113l0.494,0.697l0.104,0.225l0.038,0.136l0.011,0.147l-0.017,0.44l0.027,0.134l0.055,0.113l0.225,0.291l0.115,0.221
		l0.062,0.268l0.026,0.304l0.062,0.281l0.022,0.293l-0.066,0.591l0.099,1.203l0.037,0.125l0.051,0.12l0.313,0.554l0.143,0.354
		l0.121,0.21l0.077,0.093l0.066,0.104l0.187,0.448l0.088,0.294l0.02,0.153l0.007,0.203l-0.077,1.009l0.011,0.144l0.055,0.109
		l0.082,0.096l0.313,0.198l0.093,0.078l0.06,0.098l0.029,0.133l-0.013,0.593l0.038,0.126l0.077,0.091l0.117,0.061l0.554,0.125
		l0.11,0.063l0.088,0.078l0.082,0.094l0.066,0.1l0.088,0.101l0.082,0.076l0.099,0.069l0.181,0.163l0.082,0.097l0.181,0.312
		l0.494,0.566l0.077,0.13l0.055,0.219l-0.033,0.142l-0.077,0.099l-0.11,0.045l-0.28-0.015l-0.159,0.032l-0.055,0.101l0.005,0.115
		l0.033,0.121l0.049,0.123l0.066,0.139l0.132,0.376l-0.022,0.141l-0.088,0.084l-0.126,0.012l-0.291-0.043l-0.412-0.104l-0.291-0.031
		l-0.291,0.034l-0.137,0.032l-0.15,0.058l-0.146,0.082l-0.15,0.155l-0.038,0.144l0.009,0.135l0.399,0.647l0.059,0.137l0.051,0.222
		l-0.055,0.112l-0.106,0.124l-0.132,0.129l-0.296,0.593l-0.077,0.089l-0.088,0.081l-0.22,0.121l-0.132,0.093l-0.132,0.118
		l-0.165,0.23l-0.044,0.23v0.661l-0.055,0.199l-0.088,0.121l-0.181,0.112l-0.121,0.097l-0.188,0.204l-0.066,0.167l-0.015,0.163
		l0.011,0.141l-0.139,1.342l-0.128,0.517l-0.066,0.116l-0.081,0.089l-0.099,0.074l-0.22,0.117l-0.121,0.029l-0.307-0.013
		l-0.285-0.049h-0.296l-1.165-0.925l-0.472-0.224l-0.154-0.01l-0.302,0.01l-0.183-0.01l-0.379-0.071l-0.165-0.01l-0.17,0.017
		l-0.198,0.046l-0.247,0.086l-0.291,0.164l-0.148,0.15l-0.335,0.505L307.626,136l-0.033,0.132l-0.048,0.308l-0.018,0.311
		l0.018,0.453l-0.044,0.138l-0.077,0.117l-0.227,0.214l-0.088,0.106l-0.06,0.113l-0.198,0.835l-0.121,0.226l-0.071,0.094
		l-1.302,1.064l-0.181,0.118l-0.049,0.019l-0.263,0.058l-1.456,0.546l-0.302,0.043l-0.648,0.002l-0.865-0.093l-0.294-0.607v-2.301
		l-0.126-0.589l-0.234-0.55l-0.106-0.573l0.247-0.663l-0.253-0.389l-0.013-0.514l0.205-0.449l0.412-0.192l0.726-0.164l0.296-0.401
		v-0.504l-0.165-0.476l-1.083-1.689l1.445-0.014l0.554,0.171l1.368,0.669l0.768,0.558l0.221,0.089l0.198,0.043l0.143-0.024
		l0.132-0.038l0.113-0.057l0.106-0.075l0.154-0.075l0.203-0.078l0.423-0.072l0.203-0.084l0.126-0.103l0.066-0.106l0.084-0.092
		l0.208-0.131l0.069-0.087l0.044-0.115l0.011-0.628l0.066-0.455l0.068-0.279l0.042-0.127l0.271-1.212v-0.154l-0.027-0.144
		l-0.049-0.109l-0.066-0.112l-0.082-0.088l-0.265-0.252l-0.066-0.108l-0.055-0.113l-0.091-0.236l-0.11-0.562l-0.033-0.133
		l-0.21-0.457l-0.088-0.258l-0.082-0.417l-0.04-0.134l-0.377-0.977l-0.245-1.077l-0.057-0.12l-0.082-0.098l-0.121-0.075l-0.17-0.024
		l-0.199,0.006l-0.455,0.099l-0.126,0.012l-0.139-0.017l-0.113-0.047l-0.093-0.075l-0.066-0.1l-0.093-0.251l-0.157-0.715
		l-0.018-0.045l0.508-2.903l0.013-0.446l-0.038-0.287l-0.038-1.67l-0.027-0.17l-0.082-0.266l-0.06-0.104l-0.082-0.094l-0.263-0.249
		l-0.071-0.198l-0.049-0.305l-0.082-1.555l-0.06-0.427l-0.038-0.132l-0.104-0.231l-0.145-0.201l-0.198-0.147l-2.29-1.329
		l-0.878-0.304l-0.362-0.175l0.104-0.398l0.653-0.796l0.159-0.145l-0.134-0.337l-0.26-0.356l-0.15-0.395l0.181-0.451l0.272-0.4
		l0.155-0.444l-0.027-0.433l-0.28-0.367l0.56-0.307l2.098-0.458l0.671-0.385l1.431-1.175l3.26-1.649l0.203-0.616l0.937-1.407
		l0.267-0.677l0.417-0.212l0.988-2.01l0.165-0.254l0.117-0.064l0.126-0.024l0.126-0.009l0.093,0.01l0.099,0.023l0.11,0.048
		l0.093,0.065l0.088,0.078l0.148,0.159l0.086,0.129l0.062,0.066l0.069,0.029l0.117-0.02l0.143-0.072l0.605-0.601l0.126-0.1
		l0.137-0.059l0.137-0.036l0.143-0.02l0.62-0.006l0.159-0.017l0.165-0.079l0.176-0.138l0.43-0.469l0.137-0.113l0.113-0.056
		l0.265-0.071l0.79-0.025l0.39-0.068l0.121,0.038l0.112,0.058l0.077,0.091l0.044,0.096l-0.017,0.125l-0.071,0.237l0.016,0.121
		l0.049,0.113l0.456,0.549l0.066,0.107l0.077,0.098l0.088,0.085l0.11,0.071l0.236,0.11l0.104,0.062l0.092,0.08l0.069,0.1
		l0.179,0.532l0.029,0.183l0.011,0.27l-0.044,0.155l-0.095,0.118l-0.115,0.091L319.14,98.9l-0.077,0.119l-0.033,0.143l0.006,0.142
		l0.042,0.125l0.073,0.102l0.088,0.079l0.9,0.646l0.573,0.283l0.99,0.888l0.212,0.138l0.485,0.196L322.601,101.922z"/>
	
</g>
<g id="Copyright">
	<text transform="matrix(1 0 0 1 681.6426 577.5916)" class="st1 st2"> Vemaps.com</text>
</g>
</svg>
